Coordinates
version=1
nRows=10
nColumns=63
inDegrees=yes

Units are S.I. units (second, meters, Newtons, ...)
If the header above contains a line with 'inDegrees', this indicates whether rotational values are in degrees (yes) or radians (no).

endheader
time	pelvis_tilt	pelvis_list	pelvis_rotation	pelvis_tx	pelvis_ty	pelvis_tz	hip_flexion_r	hip_adduction_r	hip_rotation_r	knee_angle_r	knee_angle_r_beta	ankle_angle_r	subtalar_angle_r	mtp_angle_r	hip_flexion_l	hip_adduction_l	hip_rotation_l	knee_angle_l	knee_angle_l_beta	ankle_angle_l	subtalar_angle_l	mtp_angle_l	L5_S1_Flex_Ext	L5_S1_Lat_Bending	L5_S1_axial_rotation	L4_L5_Flex_Ext	L4_L5_Lat_Bending	L4_L5_axial_rotation	L3_L4_Flex_Ext	L3_L4_Lat_Bending	L3_L4_axial_rotation	L2_L3_Flex_Ext	L2_L3_Lat_Bending	L2_L3_axial_rotation	L1_L2_Flex_Ext	L1_L2_Lat_Bending	L1_L2_axial_rotation	L1_T12_Flex_Ext	L1_T12_Lat_Bending	L1_T12_axial_rotation	Abs_r3	Abs_r2	Abs_r1	Abs_t1	Abs_t2	neck_flexion	neck_bending	neck_rotation	arm_flex_r	arm_add_r	arm_rot_r	elbow_flex_r	pro_sup_r	wrist_flex_r	wrist_dev_r	arm_flex_l	arm_add_l	arm_rot_l	elbow_flex_l	pro_sup_l	wrist_flex_l	wrist_dev_l
      3.75000000	    -41.18908591	     -0.19477377	     -3.75386075	     -0.18569629	      1.09397976	     -0.00494001	     86.96730128	     -0.37453272	     -1.69543349	     82.45884148	      1.43917828	     10.74852853	     -0.81249561	      0.00000000	    108.17237963	     -5.86989291	      6.43795497	     80.93423122	      1.41256881	     20.11673240	     -6.34895765	      0.00000000	     -0.08561614	     -0.18129507	      0.75397463	     -0.15899773	     -0.24112244	      0.80109805	     -0.14065876	     -0.44080083	      0.80109805	     -0.09785069	     -0.44080083	      0.65972780	     -0.07950315	     -0.36969690	      0.61260439	     -0.04892106	     -0.28082606	      0.56548097	     -0.61154752	     -2.05084607	      4.19338072	      0.00000000	      0.00000000	     -0.00000000	      0.00000000	      0.00000000	     60.49279858	     -4.47761624	     15.28714974	     33.70988368	     23.98210958	      0.00000000	      5.00002419	     66.19099625	     -4.86871294	     26.49706298	     27.09109331	     42.56165774	      0.00000000	      5.00002419
      3.75800000	    -41.24549337	     -0.58676239	     -3.80165764	     -0.18597881	      1.09415650	     -0.00512711	     88.03690578	     -0.53042344	     -2.09221658	     84.58028457	      1.47620445	     11.04762099	     -0.16868885	      0.00000000	    106.79425567	     -5.93444028	      6.56124481	     78.53602871	      1.37071228	     19.84466820	     -6.64198876	      0.00000000	     -0.08474257	     -0.12345397	      0.76881353	     -0.15737544	     -0.16419379	      0.81686437	     -0.13922358	     -0.30016599	      0.81686437	     -0.09685229	     -0.30016599	      0.67271184	     -0.07869195	     -0.25174734	      0.62466099	     -0.04842191	     -0.19123021	      0.57661015	     -0.60530774	     -1.39653605	      4.27591020	      0.00000000	      0.00000000	     -0.00000000	      0.00000000	      0.00000000	     60.64639271	     -4.61861607	     15.63999905	     33.56699445	     24.01336846	      0.00000000	      5.00002387	     66.11987911	     -4.76609166	     26.18515796	     27.03871980	     42.48999595	      0.00000000	      5.00002387
      3.76700000	    -41.29800892	     -1.03658408	     -4.04853195	     -0.18636371	      1.09427016	     -0.00502607	     89.13836917	     -0.40783277	     -2.46882766	     86.61914049	      1.51178920	     11.37113251	      0.06028433	      0.00000000	    105.47461571	     -6.25144467	      6.75705721	     76.28252763	      1.33138127	     19.30950760	     -6.66509838	      0.00000000	     -0.08724214	     -0.05837532	      0.82201417	     -0.16201737	     -0.07763917	      0.87339006	     -0.14333011	     -0.14193375	      0.87339006	     -0.09970904	     -0.14193375	      0.71926240	     -0.08101305	     -0.11903895	      0.66788651	     -0.04985016	     -0.09042337	      0.61651063	     -0.62316186	     -0.66035328	      4.57179622	      0.00000000	      0.00000000	     -0.00000000	      0.00000000	      0.00000000	     60.82887998	     -4.76051732	     15.77878399	     33.49879907	     24.02682817	      0.00000000	      5.00002374	     66.09993404	     -4.68407175	     26.05225910	     27.05264595	     42.46002713	      0.00000000	      5.00002374
      3.77500000	    -41.35486186	     -1.37536495	     -3.46311608	     -0.18653461	      1.09430861	     -0.00613664	     90.35114145	     -1.22231025	     -2.67370734	     88.86283227	      1.55094901	     11.71777921	      1.18864287	      0.00000000	    103.96070643	     -5.71502039	      6.60768730	     73.72669446	      1.28677356	     18.47008662	     -7.64192965	      0.00000000	     -0.08410980	     -0.00730405	      0.69641414	     -0.15620031	     -0.00971439	      0.73994002	     -0.13818399	     -0.01775907	      0.73994002	     -0.09612909	     -0.01775907	      0.60936237	     -0.07810436	     -0.01489442	      0.56583649	     -0.04806034	     -0.01131398	      0.52231060	     -0.60078789	     -0.08262490	      3.87324651	      0.00000000	      0.00000000	     -0.00000000	      0.00000000	      0.00000000	     61.09588711	     -4.88756294	     17.00909538	     33.23499581	     24.22234761	      0.00000000	      5.00002265	     65.94267374	     -4.64550348	     25.05610303	     27.02235878	     42.23251101	      0.00000000	      5.00002265
      3.78300000	    -41.40021941	     -1.85309156	     -3.51650479	     -0.18672170	      1.09434732	     -0.00652685	     91.55136104	     -1.37148522	     -3.08136568	     90.86907079	      1.58596447	     11.72128868	      1.34289727	      0.00000000	    102.52550178	     -5.81516676	      6.85898910	     71.42901301	      1.24667146	     17.99698530	     -7.64773172	      0.00000000	     -0.08417934	      0.06376128	      0.71504978	     -0.15632945	      0.08480251	      0.75974039	     -0.13829823	      0.15502918	      0.75974039	     -0.09620856	      0.15502918	      0.62566855	     -0.07816893	      0.13002201	      0.58097794	     -0.04810007	      0.09876623	      0.53628733	     -0.60128459	      0.72128038	      3.97689234	      0.00000000	      0.00000000	     -0.00000000	      0.00000000	      0.00000000	     61.25186187	     -5.03091484	     17.16002949	     33.22365261	     24.30700304	      0.00000000	      5.00002229	     65.86362240	     -4.52131293	     24.87696722	     27.00015859	     42.19681337	      0.00000000	      5.00002229
      3.79200000	    -41.43732953	     -2.33244919	     -3.06479905	     -0.18683257	      1.09421626	     -0.00763416	     92.83004629	     -2.02525012	     -3.43206579	     93.00041277	      1.62316341	     11.68462796	      1.42502657	      0.00000000	    101.09371427	     -5.39648226	      6.96698025	     69.12941614	      1.20653592	     16.68803502	     -8.56390195	      0.00000000	     -0.08321348	      0.13234678	      0.62600885	     -0.15453576	      0.17602122	      0.66513440	     -0.13671143	      0.32178797	      0.66513440	     -0.09510469	      0.32178797	      0.54775774	     -0.07727204	      0.26988156	      0.50863219	     -0.04754818	      0.20500517	      0.46950664	     -0.59438560	      1.49713330	      3.48167342	      0.00000000	      0.00000000	     -0.00000000	      0.00000000	      0.00000000	     61.52818414	     -5.24175960	     18.21131229	     33.03319128	     24.45944925	      0.00000000	      5.00002085	     65.67923437	     -4.34111791	     23.78448464	     27.09472108	     41.93263995	      0.00000000	      5.00002085
      3.80000000	    -41.48547736	     -2.82011607	     -3.15602514	     -0.18695556	      1.09417989	     -0.00801924	     94.08979057	     -2.09709493	     -3.78490812	     94.86828877	      1.65576399	     11.82544015	      1.44245121	      0.00000000	     99.70597071	     -5.60764409	      7.21345224	     67.00295734	      1.16942221	     15.94463536	     -8.24411555	      0.00000000	     -0.08258884	      0.20330869	      0.65724944	     -0.15337573	      0.27040056	      0.69832753	     -0.13568520	      0.49432475	      0.69832753	     -0.09439078	      0.49432475	      0.57509326	     -0.07669200	      0.41458708	      0.53401517	     -0.04719126	      0.31492516	      0.49293708	     -0.58992381	      2.29986855	      3.65542423	      0.00000000	      0.00000000	     -0.00000000	      0.00000000	      0.00000000	     61.65861796	     -5.40462130	     18.23738543	     33.03940424	     24.52595660	      0.00000000	      5.00002060	     65.63810175	     -4.17727430	     23.72127256	     27.15279430	     41.92242707	      0.00000000	      5.00002060
      3.80800000	    -41.47929771	     -3.24292460	     -2.50004418	     -0.18687050	      1.09391181	     -0.00971695	     95.45365988	     -3.06097498	     -4.07184060	     96.96471279	      1.69235350	     11.57933484	      1.48424691	      0.00000000	     98.22750141	     -5.01877945	      7.37211771	     64.85539754	      1.13194022	     15.01770145	     -8.22585059	      0.00000000	     -0.08300467	      0.27259563	      0.52710927	     -0.15414797	      0.36255218	      0.56005360	     -0.13636837	      0.66278901	      0.56005360	     -0.09486604	      0.66278901	      0.46122061	     -0.07707814	      0.55587700	      0.42827628	     -0.04742887	      0.42225063	      0.39533195	     -0.59289405	      3.08365625	      2.93162362	      0.00000000	      0.00000000	     -0.00000000	      0.00000000	      0.00000000	     61.81956968	     -5.43220715	     18.53524110	     33.02900325	     24.62044929	      0.00000000	      5.00002018	     65.54098049	     -4.10990119	     23.44105497	     27.04758839	     41.85835042	      0.00000000	      5.00002018
      3.81700000	    -41.48457300	     -3.64843560	     -2.13947447	     -0.18679971	      1.09368919	     -0.01103776	     96.79521153	     -3.69144045	     -4.34008861	     98.86311487	      1.72548686	     11.62752786	      1.42073626	      0.00000000	     96.84270792	     -4.76263673	      7.53015293	     62.90047902	      1.09782046	     13.74833099	     -8.26859592	      0.00000000	     -0.08177182	      0.33909033	      0.46090286	     -0.15185844	      0.45099013	      0.48970929	     -0.13434292	      0.82446422	      0.48970929	     -0.09345701	      0.82446422	      0.40329000	     -0.07593331	      0.69147299	      0.37448357	     -0.04672442	      0.52525091	      0.34567714	     -0.58408791	      3.83585758	      2.56340342	      0.00000000	      0.00000000	     -0.00000000	      0.00000000	      0.00000000	     62.01643403	     -5.56192893	     18.94412099	     32.91966097	     24.73786853	      0.00000000	      5.00001967	     65.40728577	     -3.96841828	     23.10658616	     27.10300184	     41.77836356	      0.00000000	      5.00001967
      3.82500000	    -41.49852370	     -4.05442860	     -2.25509539	     -0.18673385	      1.09349565	     -0.01176453	     98.11900057	     -3.81418292	     -4.63958622	    100.52826374	      1.75454919	     11.88926006	      1.39125440	      0.00000000	     95.53763414	     -5.05614524	      7.66997486	     61.14857305	      1.06724393	     12.77961752	     -7.95888501	      0.00000000	     -0.08175361	      0.40931639	      0.48740711	     -0.15182463	      0.54439081	      0.51787006	     -0.13431301	      0.99521188	      0.51787006	     -0.09343620	      0.99521188	      0.42648122	     -0.07591640	      0.83467799	      0.39601828	     -0.04671401	      0.63403110	      0.36555533	     -0.58395787	      4.63026892	      2.71081214	      0.00000000	      0.00000000	     -0.00000000	      0.00000000	      0.00000000	     62.17668175	     -5.70594401	     19.06202760	     32.89167989	     24.81940243	      0.00000000	      5.00001945	     65.29073566	     -3.81825340	     23.02359689	     27.16421055	     41.76224786	      0.00000000	      5.00001945
